# xmcd CD database file
#
# Track frame offsets:
#	150
#	5015
#	17641
#	31088
#	46972
#	63392
#	78957
#	95978
#
# Disc length: 1511 seconds
#
# Revision: 0
# Processed by: cddbd v1.5.1PL0 Copyright (c) Steve Scherf et al.
# Submitted via: CDex 1.51
#
DISCID=5b05e508
DTITLE=Mary and Co - Scene 1
DYEAR=1900
DGENRE=Country
TTITLE0=Happiness
TTITLE1=Photo
TTITLE2=Those Words We Said
TTITLE3=Anything and Everything
TTITLE4=Même Si
TTITLE5=Vultures
TTITLE6=Crazy
TTITLE7=Pour Lui
EXTD=
EXTT0=
EXTT1=
EXTT2=
EXTT3=
EXTT4=
EXTT5=
EXTT6=
EXTT7=
PLAYORDER=
